<svg width="16" height="17" viewBox="0 0 16 17" fill="none" xmlns="http://www.w3.org/2000/svg">
<path d="M12.5 7.6875C12.5 7.47656 12.2891 7.26562 12.0781 7.26562H8.98438V4.17188C8.98438 3.96094 8.77344 3.75 8.5625 3.75H7.4375C7.19141 3.75 7.01562 3.96094 7.01562 4.17188V7.26562H3.92188C3.67578 7.26562 3.5 7.47656 3.5 7.6875V8.8125C3.5 9.05859 3.67578 9.23438 3.92188 9.23438H7.01562V12.3281C7.01562 12.5742 7.19141 12.75 7.4375 12.75H8.5625C8.77344 12.75 8.98438 12.5742 8.98438 12.3281V9.23438H12.0781C12.2891 9.23438 12.5 9.05859 12.5 8.8125V7.6875ZM15.875 2.0625C15.875 1.14844 15.1016 0.375 14.1875 0.375H1.8125C0.863281 0.375 0.125 1.14844 0.125 2.0625V14.4375C0.125 15.3867 0.863281 16.125 1.8125 16.125H14.1875C15.1016 16.125 15.875 15.3867 15.875 14.4375V2.0625ZM14.1875 14.2266C14.1875 14.3672 14.082 14.4375 13.9766 14.4375H2.02344C1.88281 14.4375 1.8125 14.3672 1.8125 14.2266V2.27344C1.8125 2.16797 1.88281 2.0625 2.02344 2.0625H13.9766C14.082 2.0625 14.1875 2.16797 14.1875 2.27344V14.2266Z" fill="#FF7000"/>
</svg>
